# xmcd
#
# Track frame offsets:
#	150
#	17462
#	33400
#	51245
#	67452
#	84645
#	105310
#	120222
#	129637
#	148312
#	166055
#	181412
#
# Disc length: 2644 seconds
#
# Revision: 5
# Processed by: cddbd v1.5.2PL0 Copyright (c) Steve Scherf et al.
# Submitted via: EZCDAudioConverter 8.0.2.1
#
DISCID=a10a520c
DTITLE=REVISTA CONTIGO WARNER MUSIC BRASIL - O MELHOR DO SERTANEJO - VOLUME 1 
DTITLE=(CD CONT 01) REVISTA CONTIGO
DYEAR=1997
DGENRE=SERTANEJO
TTITLE0=LEANDRO E LEONARDO - DOCE MISTÉRIO (BY GILMAR SINISTRO)
TTITLE1=JOÃO PAULO E DANIEL - FRENTE A FRENTE (BY GILMAR SINISTRO)
TTITLE2=GIAN E GIOVANI - METO O PÉ NA PORTA (BY GILMAR SINISTRO)
TTITLE3=LEANDRO E LEONARDO - BOBO (BY GILMAR SINISTRO)
TTITLE4=CHRYSTIAN E RALF - AUSÊNCIA (BY GILMAR SINISTRO)
TTITLE5=JAYNE - PRECISO SER AMADA (BY GILMAR SINISTRO)
TTITLE6=LEANDRO E LEONARDO - MEXE MEXE (BY GILMAR SINISTRO)
TTITLE7=MILIONÁRIO E JOSÉ RICO - ESTRADA DA VIDA (BY GILMAR SINISTRO)
TTITLE8=JOÃO PAULO E DANIEL - MINHA ESTRELA PERDIDA (BY GILMAR SINISTRO)
TTITLE9=LEANDRO E LEONARDO - SOLIDÃO (BY GILMAR SINISTRO)
TTITLE10=CHRYSTIAN E RALF - CHEIRO DE SHAMPOO (BY GILMAR SINISTRO)
TTITLE11=GIAN E GIOVANI - PASSARELA DO MEU CORAÇÃO (BY GILMAR SINISTRO)
EXTD=
EXTT0=
EXTT1=
EXTT2=
EXTT3=
EXTT4=
EXTT5=
EXTT6=
EXTT7=
EXTT8=
EXTT9=
EXTT10=
EXTT11=
PLAYORDER=
